<?xml version="1.0" encoding="utf-8" standalone="no"?>
<!DOCTYPE svg PUBLIC "-//W3C//DTD SVG 1.1//EN"
  "http://www.w3.org/Graphics/SVG/1.1/DTD/svg11.dtd">
<svg xmlns:xlink="http://www.w3.org/1999/xlink" width="284.002102pt" height="276.517366pt" viewBox="0 0 284.002102 276.517366" xmlns="http://www.w3.org/2000/svg" version="1.1">
 <metadata>
  <rdf:RDF xmlns:dc="http://purl.org/dc/elements/1.1/" xmlns:cc="http://creativecommons.org/ns#" xmlns:rdf="http://www.w3.org/1999/02/22-rdf-syntax-ns#">
   <cc:Work>
    <dc:type rdf:resource="http://purl.org/dc/dcmitype/StillImage"/>
    <dc:date>2025-06-15T22:45:44.160432</dc:date>
    <dc:format>image/svg+xml</dc:format>
    <dc:creator>
     <cc:Agent>
      <dc:title>Matplotlib v3.9.4, https://matplotlib.org/</dc:title>
     </cc:Agent>
    </dc:creator>
   </cc:Work>
  </rdf:RDF>
 </metadata>
 <defs>
  <style type="text/css">*{stroke-linejoin: round; stroke-linecap: butt}</style>
 </defs>
 <g id="figure_1">
  <g id="patch_1">
   <path d="M 0 276.517366 
L 284.002102 276.517366 
L 284.002102 0 
L 0 0 
z
" style="fill: #ffffff"/>
  </g>
  <g id="axes_1">
   <g id="patch_2">
    <path d="M 232.742953 112.834602 
C 232.742953 101.555806 230.521277 90.386682 226.205068 79.966434 
C 221.88886 69.546185 215.562059 60.077459 207.586746 52.102146 
C 199.611433 44.126832 190.142707 37.800032 179.722458 33.483823 
C 169.302209 29.167615 158.133085 26.945938 146.854289 26.945938 
C 135.575493 26.945938 124.406369 29.167615 113.98612 33.483823 
C 103.565872 37.800032 94.097145 44.126832 86.121832 52.102146 
C 78.146519 60.077459 71.819719 69.546185 67.50351 79.966434 
C 63.187302 90.386682 60.965625 101.555806 60.965625 112.834602 
C 60.965625 124.113398 63.187302 135.282522 67.50351 145.702771 
C 71.819719 156.12302 78.146519 165.591746 86.121832 173.567059 
C 94.097145 181.542372 103.565872 187.869173 113.98612 192.185381 
C 124.406369 196.50159 135.575493 198.723267 146.854289 198.723267 
C 158.133085 198.723267 169.302209 196.50159 179.722458 192.185381 
C 190.142707 187.869173 199.611433 181.542372 207.586746 173.567059 
C 215.562059 165.591746 221.88886 156.12302 226.205068 145.702771 
C 230.521277 135.282522 232.742953 124.113398 232.742953 112.834602 
M 146.854289 112.834602 
C 146.854289 112.834602 146.854289 112.834602 146.854289 112.834602 
C 146.854289 112.834602 146.854289 112.834602 146.854289 112.834602 
C 146.854289 112.834602 146.854289 112.834602 146.854289 112.834602 
C 146.854289 112.834602 146.854289 112.834602 146.854289 112.834602 
C 146.854289 112.834602 146.854289 112.834602 146.854289 112.834602 
C 146.854289 112.834602 146.854289 112.834602 146.854289 112.834602 
C 146.854289 112.834602 146.854289 112.834602 146.854289 112.834602 
C 146.854289 112.834602 146.854289 112.834602 146.854289 112.834602 
C 146.854289 112.834602 146.854289 112.834602 146.854289 112.834602 
C 146.854289 112.834602 146.854289 112.834602 146.854289 112.834602 
C 146.854289 112.834602 146.854289 112.834602 146.854289 112.834602 
C 146.854289 112.834602 146.854289 112.834602 146.854289 112.834602 
C 146.854289 112.834602 146.854289 112.834602 146.854289 112.834602 
C 146.854289 112.834602 146.854289 112.834602 146.854289 112.834602 
C 146.854289 112.834602 146.854289 112.834602 146.854289 112.834602 
C 146.854289 112.834602 146.854289 112.834602 146.854289 112.834602 
z
" style="fill: #ffffff"/>
   </g>
   <g id="patch_3">
    <path d="M 173.704458 112.834602 
L 169.169081 74.184249 
L 110.829946 50.43861 
L 123.991352 112.834602 
L 136.04261 131.56098 
L 168.961366 151.125183 
z
" clip-path="url(#pcf79aca5da)" style="fill: #1f77b4; opacity: 0.15"/>
   </g>
   <g id="patch_4">
    <path d="M 165.778975 112.834602 
L 168.650941 75.081694 
L 130.389876 84.317403 
L 129.79988 112.834602 
L 114.475887 168.915639 
L 174.33972 160.440764 
z
" clip-path="url(#pcf79aca5da)" style="fill: #ff7f0e; opacity: 0.15"/>
   </g>
   <g id="patch_5">
    <path d="M 182.284152 112.834602 
L 157.980457 93.563514 
L 116.131416 59.621025 
L 113.984192 112.834602 
L 138.110067 127.980039 
L 178.225491 167.171117 
z
" clip-path="url(#pcf79aca5da)" style="fill: #2ca02c; opacity: 0.15"/>
   </g>
   <g id="patch_6">
    <path d="M 224.72485 112.834602 
L 161.648155 87.210875 
L 130.902501 85.205295 
L 119.270942 112.834602 
L 130.513515 141.137654 
L 163.155351 141.06887 
z
" clip-path="url(#pcf79aca5da)" style="fill: #d62728; opacity: 0.15"/>
   </g>
   <g id="patch_7">
    <path d="M 158.259087 112.834602 
L 174.391939 65.137994 
L 132.735977 88.380968 
L 105.255682 112.834602 
L 114.523468 168.833228 
L 162.480248 139.899557 
z
" clip-path="url(#pcf79aca5da)" style="fill: #9467bd; opacity: 0.15"/>
   </g>
   <g id="patch_8">
    <path d="M 151.505762 112.834602 
L 170.602834 71.700916 
L 119.984453 66.294681 
L 109.845644 112.834602 
L 118.161122 162.532626 
L 162.827126 140.500368 
z
" clip-path="url(#pcf79aca5da)" style="fill: #8c564b; opacity: 0.15"/>
   </g>
   <g id="matplotlib.axis_1">
    <g id="xtick_1">
     <g id="text_1">
      <!-- B -->
      <g transform="translate(259.812485 115.593977) scale(0.1 -0.1)">
       <defs>
        <path id="DejaVuSans-42" d="M 1259 2228 
L 1259 519 
L 2272 519 
Q 2781 519 3026 730 
Q 3272 941 3272 1375 
Q 3272 1813 3026 2020 
Q 2781 2228 2272 2228 
L 1259 2228 
z
M 1259 4147 
L 1259 2741 
L 2194 2741 
Q 2656 2741 2882 2914 
Q 3109 3088 3109 3444 
Q 3109 3797 2882 3972 
Q 2656 4147 2194 4147 
L 1259 4147 
z
M 628 4666 
L 2241 4666 
Q 2963 4666 3353 4366 
Q 3744 4066 3744 3513 
Q 3744 3084 3544 2831 
Q 3344 2578 2956 2516 
Q 3422 2416 3680 2098 
Q 3938 1781 3938 1306 
Q 3938 681 3513 340 
Q 3088 0 2303 0 
L 628 0 
L 628 4666 
z
" transform="scale(0.015625)"/>
       </defs>
       <use xlink:href="#DejaVuSans-42"/>
      </g>
     </g>
    </g>
    <g id="xtick_2">
     <g id="text_2">
      <!-- Treg -->
      <g transform="translate(194.538465 14.798438) scale(0.1 -0.1)">
       <defs>
        <path id="DejaVuSans-54" d="M -19 4666 
L 3928 4666 
L 3928 4134 
L 2272 4134 
L 2272 0 
L 1638 0 
L 1638 4134 
L -19 4134 
L -19 4666 
z
" transform="scale(0.015625)"/>
        <path id="DejaVuSans-72" d="M 2631 2963 
Q 2534 3019 2420 3045 
Q 2306 3072 2169 3072 
Q 1681 3072 1420 2755 
Q 1159 2438 1159 1844 
L 1159 0 
L 581 0 
L 581 3500 
L 1159 3500 
L 1159 2956 
Q 1341 3275 1631 3429 
Q 1922 3584 2338 3584 
Q 2397 3584 2469 3576 
Q 2541 3569 2628 3553 
L 2631 2963 
z
" transform="scale(0.015625)"/>
        <path id="DejaVuSans-65" d="M 3597 1894 
L 3597 1613 
L 953 1613 
Q 991 1019 1311 708 
Q 1631 397 2203 397 
Q 2534 397 2845 478 
Q 3156 559 3463 722 
L 3463 178 
Q 3153 47 2828 -22 
Q 2503 -91 2169 -91 
Q 1331 -91 842 396 
Q 353 884 353 1716 
Q 353 2575 817 3079 
Q 1281 3584 2069 3584 
Q 2775 3584 3186 3129 
Q 3597 2675 3597 1894 
z
M 3022 2063 
Q 3016 2534 2758 2815 
Q 2500 3097 2075 3097 
Q 1594 3097 1305 2825 
Q 1016 2553 972 2059 
L 3022 2063 
z
" transform="scale(0.015625)"/>
        <path id="DejaVuSans-67" d="M 2906 1791 
Q 2906 2416 2648 2759 
Q 2391 3103 1925 3103 
Q 1463 3103 1205 2759 
Q 947 2416 947 1791 
Q 947 1169 1205 825 
Q 1463 481 1925 481 
Q 2391 481 2648 825 
Q 2906 1169 2906 1791 
z
M 3481 434 
Q 3481 -459 3084 -895 
Q 2688 -1331 1869 -1331 
Q 1566 -1331 1297 -1286 
Q 1028 -1241 775 -1147 
L 775 -588 
Q 1028 -725 1275 -790 
Q 1522 -856 1778 -856 
Q 2344 -856 2625 -561 
Q 2906 -266 2906 331 
L 2906 616 
Q 2728 306 2450 153 
Q 2172 0 1784 0 
Q 1141 0 747 490 
Q 353 981 353 1791 
Q 353 2603 747 3093 
Q 1141 3584 1784 3584 
Q 2172 3584 2450 3431 
Q 2728 3278 2906 2969 
L 2906 3500 
L 3481 3500 
L 3481 434 
z
" transform="scale(0.015625)"/>
       </defs>
       <use xlink:href="#DejaVuSans-54"/>
       <use xlink:href="#DejaVuSans-72" x="46.333984"/>
       <use xlink:href="#DejaVuSans-65" x="85.197266"/>
       <use xlink:href="#DejaVuSans-67" x="146.720703"/>
      </g>
     </g>
    </g>
    <g id="xtick_3">
     <g id="text_3">
      <!-- Tfh -->
      <g transform="translate(80.677145 14.798438) scale(0.1 -0.1)">
       <defs>
        <path id="DejaVuSans-66" d="M 2375 4863 
L 2375 4384 
L 1825 4384 
Q 1516 4384 1395 4259 
Q 1275 4134 1275 3809 
L 1275 3500 
L 2222 3500 
L 2222 3053 
L 1275 3053 
L 1275 0 
L 697 0 
L 697 3053 
L 147 3053 
L 147 3500 
L 697 3500 
L 697 3744 
Q 697 4328 969 4595 
Q 1241 4863 1831 4863 
L 2375 4863 
z
" transform="scale(0.015625)"/>
        <path id="DejaVuSans-68" d="M 3513 2113 
L 3513 0 
L 2938 0 
L 2938 2094 
Q 2938 2591 2744 2837 
Q 2550 3084 2163 3084 
Q 1697 3084 1428 2787 
Q 1159 2491 1159 1978 
L 1159 0 
L 581 0 
L 581 4863 
L 1159 4863 
L 1159 2956 
Q 1366 3272 1645 3428 
Q 1925 3584 2291 3584 
Q 2894 3584 3203 3211 
Q 3513 2838 3513 2113 
z
" transform="scale(0.015625)"/>
       </defs>
       <use xlink:href="#DejaVuSans-54"/>
       <use xlink:href="#DejaVuSans-66" x="61.083984"/>
       <use xlink:href="#DejaVuSans-68" x="96.289062"/>
      </g>
     </g>
    </g>
    <g id="xtick_4">
     <g id="text_4">
      <!-- Resting T -->
      <g transform="translate(7.2 115.593977) scale(0.1 -0.1)">
       <defs>
        <path id="DejaVuSans-52" d="M 2841 2188 
Q 3044 2119 3236 1894 
Q 3428 1669 3622 1275 
L 4263 0 
L 3584 0 
L 2988 1197 
Q 2756 1666 2539 1819 
Q 2322 1972 1947 1972 
L 1259 1972 
L 1259 0 
L 628 0 
L 628 4666 
L 2053 4666 
Q 2853 4666 3247 4331 
Q 3641 3997 3641 3322 
Q 3641 2881 3436 2590 
Q 3231 2300 2841 2188 
z
M 1259 4147 
L 1259 2491 
L 2053 2491 
Q 2509 2491 2742 2702 
Q 2975 2913 2975 3322 
Q 2975 3731 2742 3939 
Q 2509 4147 2053 4147 
L 1259 4147 
z
" transform="scale(0.015625)"/>
        <path id="DejaVuSans-73" d="M 2834 3397 
L 2834 2853 
Q 2591 2978 2328 3040 
Q 2066 3103 1784 3103 
Q 1356 3103 1142 2972 
Q 928 2841 928 2578 
Q 928 2378 1081 2264 
Q 1234 2150 1697 2047 
L 1894 2003 
Q 2506 1872 2764 1633 
Q 3022 1394 3022 966 
Q 3022 478 2636 193 
Q 2250 -91 1575 -91 
Q 1294 -91 989 -36 
Q 684 19 347 128 
L 347 722 
Q 666 556 975 473 
Q 1284 391 1588 391 
Q 1994 391 2212 530 
Q 2431 669 2431 922 
Q 2431 1156 2273 1281 
Q 2116 1406 1581 1522 
L 1381 1569 
Q 847 1681 609 1914 
Q 372 2147 372 2553 
Q 372 3047 722 3315 
Q 1072 3584 1716 3584 
Q 2034 3584 2315 3537 
Q 2597 3491 2834 3397 
z
" transform="scale(0.015625)"/>
        <path id="DejaVuSans-74" d="M 1172 4494 
L 1172 3500 
L 2356 3500 
L 2356 3053 
L 1172 3053 
L 1172 1153 
Q 1172 725 1289 603 
Q 1406 481 1766 481 
L 2356 481 
L 2356 0 
L 1766 0 
Q 1100 0 847 248 
Q 594 497 594 1153 
L 594 3053 
L 172 3053 
L 172 3500 
L 594 3500 
L 594 4494 
L 1172 4494 
z
" transform="scale(0.015625)"/>
        <path id="DejaVuSans-69" d="M 603 3500 
L 1178 3500 
L 1178 0 
L 603 0 
L 603 3500 
z
M 603 4863 
L 1178 4863 
L 1178 4134 
L 603 4134 
L 603 4863 
z
" transform="scale(0.015625)"/>
        <path id="DejaVuSans-6e" d="M 3513 2113 
L 3513 0 
L 2938 0 
L 2938 2094 
Q 2938 2591 2744 2837 
Q 2550 3084 2163 3084 
Q 1697 3084 1428 2787 
Q 1159 2491 1159 1978 
L 1159 0 
L 581 0 
L 581 3500 
L 1159 3500 
L 1159 2956 
Q 1366 3272 1645 3428 
Q 1925 3584 2291 3584 
Q 2894 3584 3203 3211 
Q 3513 2838 3513 2113 
z
" transform="scale(0.015625)"/>
        <path id="DejaVuSans-20" transform="scale(0.015625)"/>
       </defs>
       <use xlink:href="#DejaVuSans-52"/>
       <use xlink:href="#DejaVuSans-65" x="64.982422"/>
       <use xlink:href="#DejaVuSans-73" x="126.505859"/>
       <use xlink:href="#DejaVuSans-74" x="178.605469"/>
       <use xlink:href="#DejaVuSans-69" x="217.814453"/>
       <use xlink:href="#DejaVuSans-6e" x="245.597656"/>
       <use xlink:href="#DejaVuSans-67" x="308.976562"/>
       <use xlink:href="#DejaVuSans-20" x="372.453125"/>
       <use xlink:href="#DejaVuSans-54" x="404.240234"/>
      </g>
     </g>
    </g>
    <g id="xtick_5">
     <g id="text_5">
      <!-- CD8+ T -->
      <g transform="translate(69.304488 216.389517) scale(0.1 -0.1)">
       <defs>
        <path id="DejaVuSans-43" d="M 4122 4306 
L 4122 3641 
Q 3803 3938 3442 4084 
Q 3081 4231 2675 4231 
Q 1875 4231 1450 3742 
Q 1025 3253 1025 2328 
Q 1025 1406 1450 917 
Q 1875 428 2675 428 
Q 3081 428 3442 575 
Q 3803 722 4122 1019 
L 4122 359 
Q 3791 134 3420 21 
Q 3050 -91 2638 -91 
Q 1578 -91 968 557 
Q 359 1206 359 2328 
Q 359 3453 968 4101 
Q 1578 4750 2638 4750 
Q 3056 4750 3426 4639 
Q 3797 4528 4122 4306 
z
" transform="scale(0.015625)"/>
        <path id="DejaVuSans-44" d="M 1259 4147 
L 1259 519 
L 2022 519 
Q 2988 519 3436 956 
Q 3884 1394 3884 2338 
Q 3884 3275 3436 3711 
Q 2988 4147 2022 4147 
L 1259 4147 
z
M 628 4666 
L 1925 4666 
Q 3281 4666 3915 4102 
Q 4550 3538 4550 2338 
Q 4550 1131 3912 565 
Q 3275 0 1925 0 
L 628 0 
L 628 4666 
z
" transform="scale(0.015625)"/>
        <path id="DejaVuSans-38" d="M 2034 2216 
Q 1584 2216 1326 1975 
Q 1069 1734 1069 1313 
Q 1069 891 1326 650 
Q 1584 409 2034 409 
Q 2484 409 2743 651 
Q 3003 894 3003 1313 
Q 3003 1734 2745 1975 
Q 2488 2216 2034 2216 
z
M 1403 2484 
Q 997 2584 770 2862 
Q 544 3141 544 3541 
Q 544 4100 942 4425 
Q 1341 4750 2034 4750 
Q 2731 4750 3128 4425 
Q 3525 4100 3525 3541 
Q 3525 3141 3298 2862 
Q 3072 2584 2669 2484 
Q 3125 2378 3379 2068 
Q 3634 1759 3634 1313 
Q 3634 634 3220 271 
Q 2806 -91 2034 -91 
Q 1263 -91 848 271 
Q 434 634 434 1313 
Q 434 1759 690 2068 
Q 947 2378 1403 2484 
z
M 1172 3481 
Q 1172 3119 1398 2916 
Q 1625 2713 2034 2713 
Q 2441 2713 2670 2916 
Q 2900 3119 2900 3481 
Q 2900 3844 2670 4047 
Q 2441 4250 2034 4250 
Q 1625 4250 1398 4047 
Q 1172 3844 1172 3481 
z
" transform="scale(0.015625)"/>
        <path id="DejaVuSans-2b" d="M 2944 4013 
L 2944 2272 
L 4684 2272 
L 4684 1741 
L 2944 1741 
L 2944 0 
L 2419 0 
L 2419 1741 
L 678 1741 
L 678 2272 
L 2419 2272 
L 2419 4013 
L 2944 4013 
z
" transform="scale(0.015625)"/>
       </defs>
       <use xlink:href="#DejaVuSans-43"/>
       <use xlink:href="#DejaVuSans-44" x="69.824219"/>
       <use xlink:href="#DejaVuSans-38" x="146.826172"/>
       <use xlink:href="#DejaVuSans-2b" x="210.449219"/>
       <use xlink:href="#DejaVuSans-20" x="294.238281"/>
       <use xlink:href="#DejaVuSans-54" x="326.025391"/>
      </g>
     </g>
    </g>
    <g id="xtick_6">
     <g id="text_6">
      <!-- Th2 -->
      <g transform="translate(195.644715 216.389517) scale(0.1 -0.1)">
       <defs>
        <path id="DejaVuSans-32" d="M 1228 531 
L 3431 531 
L 3431 0 
L 469 0 
L 469 531 
Q 828 903 1448 1529 
Q 2069 2156 2228 2338 
Q 2531 2678 2651 2914 
Q 2772 3150 2772 3378 
Q 2772 3750 2511 3984 
Q 2250 4219 1831 4219 
Q 1534 4219 1204 4116 
Q 875 4013 500 3803 
L 500 4441 
Q 881 4594 1212 4672 
Q 1544 4750 1819 4750 
Q 2544 4750 2975 4387 
Q 3406 4025 3406 3419 
Q 3406 3131 3298 2873 
Q 3191 2616 2906 2266 
Q 2828 2175 2409 1742 
Q 1991 1309 1228 531 
z
" transform="scale(0.015625)"/>
       </defs>
       <use xlink:href="#DejaVuSans-54"/>
       <use xlink:href="#DejaVuSans-68" x="61.083984"/>
       <use xlink:href="#DejaVuSans-32" x="124.462891"/>
      </g>
     </g>
    </g>
   </g>
   <g id="matplotlib.axis_2">
    <g id="ytick_1"/>
    <g id="ytick_2"/>
    <g id="ytick_3"/>
    <g id="ytick_4"/>
    <g id="ytick_5"/>
   </g>
   <g id="line2d_1">
    <path d="M 166.37444 112.834602 
L 156.614365 95.929656 
" clip-path="url(#pcf79aca5da)" style="fill: none; stroke: #808080; stroke-opacity: 0.15; stroke-width: 0.5; stroke-linecap: square"/>
   </g>
   <g id="line2d_2">
    <path d="M 156.614365 95.929656 
L 137.094214 95.929656 
" clip-path="url(#pcf79aca5da)" style="fill: none; stroke: #808080; stroke-opacity: 0.15; stroke-width: 0.5; stroke-linecap: square"/>
   </g>
   <g id="line2d_3">
    <path d="M 137.094214 95.929656 
L 127.334138 112.834602 
" clip-path="url(#pcf79aca5da)" style="fill: none; stroke: #808080; stroke-opacity: 0.15; stroke-width: 0.5; stroke-linecap: square"/>
   </g>
   <g id="line2d_4">
    <path d="M 127.334138 112.834602 
L 137.094214 129.739549 
" clip-path="url(#pcf79aca5da)" style="fill: none; stroke: #808080; stroke-opacity: 0.15; stroke-width: 0.5; stroke-linecap: square"/>
   </g>
   <g id="line2d_5">
    <path d="M 137.094214 129.739549 
L 156.614365 129.739549 
" clip-path="url(#pcf79aca5da)" style="fill: none; stroke: #808080; stroke-opacity: 0.15; stroke-width: 0.5; stroke-linecap: square"/>
   </g>
   <g id="line2d_6">
    <path d="M 156.614365 129.739549 
L 166.37444 112.834602 
" clip-path="url(#pcf79aca5da)" style="fill: none; stroke: #808080; stroke-opacity: 0.15; stroke-width: 0.5; stroke-linecap: square"/>
   </g>
   <g id="line2d_7">
    <path d="M 185.894591 112.834602 
L 166.37444 79.024709 
" clip-path="url(#pcf79aca5da)" style="fill: none; stroke: #808080; stroke-opacity: 0.15; stroke-width: 0.5; stroke-linecap: square"/>
   </g>
   <g id="line2d_8">
    <path d="M 166.37444 79.024709 
L 127.334138 79.024709 
" clip-path="url(#pcf79aca5da)" style="fill: none; stroke: #808080; stroke-opacity: 0.15; stroke-width: 0.5; stroke-linecap: square"/>
   </g>
   <g id="line2d_9">
    <path d="M 127.334138 79.024709 
L 107.813987 112.834602 
" clip-path="url(#pcf79aca5da)" style="fill: none; stroke: #808080; stroke-opacity: 0.15; stroke-width: 0.5; stroke-linecap: square"/>
   </g>
   <g id="line2d_10">
    <path d="M 107.813987 112.834602 
L 127.334138 146.644496 
" clip-path="url(#pcf79aca5da)" style="fill: none; stroke: #808080; stroke-opacity: 0.15; stroke-width: 0.5; stroke-linecap: square"/>
   </g>
   <g id="line2d_11">
    <path d="M 127.334138 146.644496 
L 166.37444 146.644496 
" clip-path="url(#pcf79aca5da)" style="fill: none; stroke: #808080; stroke-opacity: 0.15; stroke-width: 0.5; stroke-linecap: square"/>
   </g>
   <g id="line2d_12">
    <path d="M 166.37444 146.644496 
L 185.894591 112.834602 
" clip-path="url(#pcf79aca5da)" style="fill: none; stroke: #808080; stroke-opacity: 0.15; stroke-width: 0.5; stroke-linecap: square"/>
   </g>
   <g id="line2d_13">
    <path d="M 205.414742 112.834602 
L 176.134516 62.119763 
" clip-path="url(#pcf79aca5da)" style="fill: none; stroke: #808080; stroke-opacity: 0.15; stroke-width: 0.5; stroke-linecap: square"/>
   </g>
   <g id="line2d_14">
    <path d="M 176.134516 62.119763 
L 117.574063 62.119763 
" clip-path="url(#pcf79aca5da)" style="fill: none; stroke: #808080; stroke-opacity: 0.15; stroke-width: 0.5; stroke-linecap: square"/>
   </g>
   <g id="line2d_15">
    <path d="M 117.574063 62.119763 
L 88.293836 112.834602 
" clip-path="url(#pcf79aca5da)" style="fill: none; stroke: #808080; stroke-opacity: 0.15; stroke-width: 0.5; stroke-linecap: square"/>
   </g>
   <g id="line2d_16">
    <path d="M 88.293836 112.834602 
L 117.574063 163.549442 
" clip-path="url(#pcf79aca5da)" style="fill: none; stroke: #808080; stroke-opacity: 0.15; stroke-width: 0.5; stroke-linecap: square"/>
   </g>
   <g id="line2d_17">
    <path d="M 117.574063 163.549442 
L 176.134516 163.549442 
" clip-path="url(#pcf79aca5da)" style="fill: none; stroke: #808080; stroke-opacity: 0.15; stroke-width: 0.5; stroke-linecap: square"/>
   </g>
   <g id="line2d_18">
    <path d="M 176.134516 163.549442 
L 205.414742 112.834602 
" clip-path="url(#pcf79aca5da)" style="fill: none; stroke: #808080; stroke-opacity: 0.15; stroke-width: 0.5; stroke-linecap: square"/>
   </g>
   <g id="line2d_19">
    <path d="M 224.934893 112.834602 
L 185.894591 45.214816 
" clip-path="url(#pcf79aca5da)" style="fill: none; stroke: #808080; stroke-opacity: 0.15; stroke-width: 0.5; stroke-linecap: square"/>
   </g>
   <g id="line2d_20">
    <path d="M 185.894591 45.214816 
L 107.813987 45.214816 
" clip-path="url(#pcf79aca5da)" style="fill: none; stroke: #808080; stroke-opacity: 0.15; stroke-width: 0.5; stroke-linecap: square"/>
   </g>
   <g id="line2d_21">
    <path d="M 107.813987 45.214816 
L 68.773685 112.834602 
" clip-path="url(#pcf79aca5da)" style="fill: none; stroke: #808080; stroke-opacity: 0.15; stroke-width: 0.5; stroke-linecap: square"/>
   </g>
   <g id="line2d_22">
    <path d="M 68.773685 112.834602 
L 107.813987 180.454389 
" clip-path="url(#pcf79aca5da)" style="fill: none; stroke: #808080; stroke-opacity: 0.15; stroke-width: 0.5; stroke-linecap: square"/>
   </g>
   <g id="line2d_23">
    <path d="M 107.813987 180.454389 
L 185.894591 180.454389 
" clip-path="url(#pcf79aca5da)" style="fill: none; stroke: #808080; stroke-opacity: 0.15; stroke-width: 0.5; stroke-linecap: square"/>
   </g>
   <g id="line2d_24">
    <path d="M 185.894591 180.454389 
L 224.934893 112.834602 
" clip-path="url(#pcf79aca5da)" style="fill: none; stroke: #808080; stroke-opacity: 0.15; stroke-width: 0.5; stroke-linecap: square"/>
   </g>
   <g id="line2d_25">
    <path d="M 146.854289 112.834602 
L 232.742953 112.834602 
" clip-path="url(#pcf79aca5da)" style="fill: none; stroke: #808080; stroke-opacity: 0.15; stroke-width: 0.5; stroke-linecap: square"/>
   </g>
   <g id="line2d_26">
    <path d="M 146.854289 112.834602 
L 189.798621 38.452837 
" clip-path="url(#pcf79aca5da)" style="fill: none; stroke: #808080; stroke-opacity: 0.15; stroke-width: 0.5; stroke-linecap: square"/>
   </g>
   <g id="line2d_27">
    <path d="M 146.854289 112.834602 
L 103.909957 38.452837 
" clip-path="url(#pcf79aca5da)" style="fill: none; stroke: #808080; stroke-opacity: 0.15; stroke-width: 0.5; stroke-linecap: square"/>
   </g>
   <g id="line2d_28">
    <path d="M 146.854289 112.834602 
L 60.965625 112.834602 
" clip-path="url(#pcf79aca5da)" style="fill: none; stroke: #808080; stroke-opacity: 0.15; stroke-width: 0.5; stroke-linecap: square"/>
   </g>
   <g id="line2d_29">
    <path d="M 146.854289 112.834602 
L 103.909957 187.216368 
" clip-path="url(#pcf79aca5da)" style="fill: none; stroke: #808080; stroke-opacity: 0.15; stroke-width: 0.5; stroke-linecap: square"/>
   </g>
   <g id="line2d_30">
    <path d="M 146.854289 112.834602 
L 189.798621 187.216368 
" clip-path="url(#pcf79aca5da)" style="fill: none; stroke: #808080; stroke-opacity: 0.15; stroke-width: 0.5; stroke-linecap: square"/>
   </g>
   <g id="line2d_31">
    <path d="M 173.704458 112.834602 
L 169.169081 74.184249 
L 110.829946 50.43861 
L 123.991352 112.834602 
L 136.04261 131.56098 
L 168.961366 151.125183 
L 173.704458 112.834602 
" clip-path="url(#pcf79aca5da)" style="fill: none; stroke: #1f77b4; stroke-linecap: square"/>
   </g>
   <g id="line2d_32">
    <path d="M 165.778975 112.834602 
L 168.650941 75.081694 
L 130.389876 84.317403 
L 129.79988 112.834602 
L 114.475887 168.915639 
L 174.33972 160.440764 
L 165.778975 112.834602 
" clip-path="url(#pcf79aca5da)" style="fill: none; stroke: #ff7f0e; stroke-linecap: square"/>
   </g>
   <g id="line2d_33">
    <path d="M 182.284152 112.834602 
L 157.980457 93.563514 
L 116.131416 59.621025 
L 113.984192 112.834602 
L 138.110067 127.980039 
L 178.225491 167.171117 
L 182.284152 112.834602 
" clip-path="url(#pcf79aca5da)" style="fill: none; stroke: #2ca02c; stroke-linecap: square"/>
   </g>
   <g id="line2d_34">
    <path d="M 224.72485 112.834602 
L 161.648155 87.210875 
L 130.902501 85.205295 
L 119.270942 112.834602 
L 130.513515 141.137654 
L 163.155351 141.06887 
L 224.72485 112.834602 
" clip-path="url(#pcf79aca5da)" style="fill: none; stroke: #d62728; stroke-linecap: square"/>
   </g>
   <g id="line2d_35">
    <path d="M 158.259087 112.834602 
L 174.391939 65.137994 
L 132.735977 88.380968 
L 105.255682 112.834602 
L 114.523468 168.833228 
L 162.480248 139.899557 
L 158.259087 112.834602 
" clip-path="url(#pcf79aca5da)" style="fill: none; stroke: #9467bd; stroke-linecap: square"/>
   </g>
   <g id="line2d_36">
    <path d="M 151.505762 112.834602 
L 170.602834 71.700916 
L 119.984453 66.294681 
L 109.845644 112.834602 
L 118.161122 162.532626 
L 162.827126 140.500368 
L 151.505762 112.834602 
" clip-path="url(#pcf79aca5da)" style="fill: none; stroke: #8c564b; stroke-linecap: square"/>
   </g>
   <g id="legend_1">
    <g id="line2d_37">
     <path d="M 21.706477 240.207991 
L 33.706477 240.207991 
L 45.706477 240.207991 
" style="fill: none; stroke: #1f77b4; stroke-linecap: square"/>
    </g>
    <g id="text_7">
     <!-- Il2 -->
     <g style="fill: #1f77b4" transform="translate(55.306477 244.407991) scale(0.12 -0.12)">
      <defs>
       <path id="DejaVuSans-49" d="M 628 4666 
L 1259 4666 
L 1259 0 
L 628 0 
L 628 4666 
z
" transform="scale(0.015625)"/>
       <path id="DejaVuSans-6c" d="M 603 4863 
L 1178 4863 
L 1178 0 
L 603 0 
L 603 4863 
z
" transform="scale(0.015625)"/>
      </defs>
      <use xlink:href="#DejaVuSans-49"/>
      <use xlink:href="#DejaVuSans-6c" x="29.492188"/>
      <use xlink:href="#DejaVuSans-32" x="57.275391"/>
     </g>
    </g>
    <g id="line2d_38">
     <path d="M 21.706477 257.821741 
L 33.706477 257.821741 
L 45.706477 257.821741 
" style="fill: none; stroke: #ff7f0e; stroke-linecap: square"/>
    </g>
    <g id="text_8">
     <!-- Il15 -->
     <g style="fill: #ff7f0e" transform="translate(55.306477 262.021741) scale(0.12 -0.12)">
      <defs>
       <path id="DejaVuSans-31" d="M 794 531 
L 1825 531 
L 1825 4091 
L 703 3866 
L 703 4441 
L 1819 4666 
L 2450 4666 
L 2450 531 
L 3481 531 
L 3481 0 
L 794 0 
L 794 531 
z
" transform="scale(0.015625)"/>
       <path id="DejaVuSans-35" d="M 691 4666 
L 3169 4666 
L 3169 4134 
L 1269 4134 
L 1269 2991 
Q 1406 3038 1543 3061 
Q 1681 3084 1819 3084 
Q 2600 3084 3056 2656 
Q 3513 2228 3513 1497 
Q 3513 744 3044 326 
Q 2575 -91 1722 -91 
Q 1428 -91 1123 -41 
Q 819 9 494 109 
L 494 744 
Q 775 591 1075 516 
Q 1375 441 1709 441 
Q 2250 441 2565 725 
Q 2881 1009 2881 1497 
Q 2881 1984 2565 2268 
Q 2250 2553 1709 2553 
Q 1456 2553 1204 2497 
Q 953 2441 691 2322 
L 691 4666 
z
" transform="scale(0.015625)"/>
      </defs>
      <use xlink:href="#DejaVuSans-49"/>
      <use xlink:href="#DejaVuSans-6c" x="29.492188"/>
      <use xlink:href="#DejaVuSans-31" x="57.275391"/>
      <use xlink:href="#DejaVuSans-35" x="120.898438"/>
     </g>
    </g>
    <g id="line2d_39">
     <path d="M 101.450227 240.207991 
L 113.450227 240.207991 
L 125.450227 240.207991 
" style="fill: none; stroke: #2ca02c; stroke-linecap: square"/>
    </g>
    <g id="text_9">
     <!-- Il4 -->
     <g style="fill: #2ca02c" transform="translate(135.050227 244.407991) scale(0.12 -0.12)">
      <defs>
       <path id="DejaVuSans-34" d="M 2419 4116 
L 825 1625 
L 2419 1625 
L 2419 4116 
z
M 2253 4666 
L 3047 4666 
L 3047 1625 
L 3713 1625 
L 3713 1100 
L 3047 1100 
L 3047 0 
L 2419 0 
L 2419 1100 
L 313 1100 
L 313 1709 
L 2253 4666 
z
" transform="scale(0.015625)"/>
      </defs>
      <use xlink:href="#DejaVuSans-49"/>
      <use xlink:href="#DejaVuSans-6c" x="29.492188"/>
      <use xlink:href="#DejaVuSans-34" x="57.275391"/>
     </g>
    </g>
    <g id="line2d_40">
     <path d="M 101.450227 257.821741 
L 113.450227 257.821741 
L 125.450227 257.821741 
" style="fill: none; stroke: #d62728; stroke-linecap: square"/>
    </g>
    <g id="text_10">
     <!-- Cxcl13 -->
     <g style="fill: #d62728" transform="translate(135.050227 262.021741) scale(0.12 -0.12)">
      <defs>
       <path id="DejaVuSans-78" d="M 3513 3500 
L 2247 1797 
L 3578 0 
L 2900 0 
L 1881 1375 
L 863 0 
L 184 0 
L 1544 1831 
L 300 3500 
L 978 3500 
L 1906 2253 
L 2834 3500 
L 3513 3500 
z
" transform="scale(0.015625)"/>
       <path id="DejaVuSans-63" d="M 3122 3366 
L 3122 2828 
Q 2878 2963 2633 3030 
Q 2388 3097 2138 3097 
Q 1578 3097 1268 2742 
Q 959 2388 959 1747 
Q 959 1106 1268 751 
Q 1578 397 2138 397 
Q 2388 397 2633 464 
Q 2878 531 3122 666 
L 3122 134 
Q 2881 22 2623 -34 
Q 2366 -91 2075 -91 
Q 1284 -91 818 406 
Q 353 903 353 1747 
Q 353 2603 823 3093 
Q 1294 3584 2113 3584 
Q 2378 3584 2631 3529 
Q 2884 3475 3122 3366 
z
" transform="scale(0.015625)"/>
       <path id="DejaVuSans-33" d="M 2597 2516 
Q 3050 2419 3304 2112 
Q 3559 1806 3559 1356 
Q 3559 666 3084 287 
Q 2609 -91 1734 -91 
Q 1441 -91 1130 -33 
Q 819 25 488 141 
L 488 750 
Q 750 597 1062 519 
Q 1375 441 1716 441 
Q 2309 441 2620 675 
Q 2931 909 2931 1356 
Q 2931 1769 2642 2001 
Q 2353 2234 1838 2234 
L 1294 2234 
L 1294 2753 
L 1863 2753 
Q 2328 2753 2575 2939 
Q 2822 3125 2822 3475 
Q 2822 3834 2567 4026 
Q 2313 4219 1838 4219 
Q 1578 4219 1281 4162 
Q 984 4106 628 3988 
L 628 4550 
Q 988 4650 1302 4700 
Q 1616 4750 1894 4750 
Q 2613 4750 3031 4423 
Q 3450 4097 3450 3541 
Q 3450 3153 3228 2886 
Q 3006 2619 2597 2516 
z
" transform="scale(0.015625)"/>
      </defs>
      <use xlink:href="#DejaVuSans-43"/>
      <use xlink:href="#DejaVuSans-78" x="69.824219"/>
      <use xlink:href="#DejaVuSans-63" x="127.253906"/>
      <use xlink:href="#DejaVuSans-6c" x="182.234375"/>
      <use xlink:href="#DejaVuSans-31" x="210.017578"/>
      <use xlink:href="#DejaVuSans-33" x="273.640625"/>
     </g>
    </g>
    <g id="line2d_41">
     <path d="M 199.523977 240.207991 
L 211.523977 240.207991 
L 223.523977 240.207991 
" style="fill: none; stroke: #9467bd; stroke-linecap: square"/>
    </g>
    <g id="text_11">
     <!-- Ccl5 -->
     <g style="fill: #9467bd" transform="translate(233.123977 244.407991) scale(0.12 -0.12)">
      <use xlink:href="#DejaVuSans-43"/>
      <use xlink:href="#DejaVuSans-63" x="69.824219"/>
      <use xlink:href="#DejaVuSans-6c" x="124.804688"/>
      <use xlink:href="#DejaVuSans-35" x="152.587891"/>
     </g>
    </g>
    <g id="line2d_42">
     <path d="M 199.523977 257.821741 
L 211.523977 257.821741 
L 223.523977 257.821741 
" style="fill: none; stroke: #8c564b; stroke-linecap: square"/>
    </g>
    <g id="text_12">
     <!-- Lgals9 -->
     <g style="fill: #8c564b" transform="translate(233.123977 262.021741) scale(0.12 -0.12)">
      <defs>
       <path id="DejaVuSans-4c" d="M 628 4666 
L 1259 4666 
L 1259 531 
L 3531 531 
L 3531 0 
L 628 0 
L 628 4666 
z
" transform="scale(0.015625)"/>
       <path id="DejaVuSans-61" d="M 2194 1759 
Q 1497 1759 1228 1600 
Q 959 1441 959 1056 
Q 959 750 1161 570 
Q 1363 391 1709 391 
Q 2188 391 2477 730 
Q 2766 1069 2766 1631 
L 2766 1759 
L 2194 1759 
z
M 3341 1997 
L 3341 0 
L 2766 0 
L 2766 531 
Q 2569 213 2275 61 
Q 1981 -91 1556 -91 
Q 1019 -91 701 211 
Q 384 513 384 1019 
Q 384 1609 779 1909 
Q 1175 2209 1959 2209 
L 2766 2209 
L 2766 2266 
Q 2766 2663 2505 2880 
Q 2244 3097 1772 3097 
Q 1472 3097 1187 3025 
Q 903 2953 641 2809 
L 641 3341 
Q 956 3463 1253 3523 
Q 1550 3584 1831 3584 
Q 2591 3584 2966 3190 
Q 3341 2797 3341 1997 
z
" transform="scale(0.015625)"/>
       <path id="DejaVuSans-39" d="M 703 97 
L 703 672 
Q 941 559 1184 500 
Q 1428 441 1663 441 
Q 2288 441 2617 861 
Q 2947 1281 2994 2138 
Q 2813 1869 2534 1725 
Q 2256 1581 1919 1581 
Q 1219 1581 811 2004 
Q 403 2428 403 3163 
Q 403 3881 828 4315 
Q 1253 4750 1959 4750 
Q 2769 4750 3195 4129 
Q 3622 3509 3622 2328 
Q 3622 1225 3098 567 
Q 2575 -91 1691 -91 
Q 1453 -91 1209 -44 
Q 966 3 703 97 
z
M 1959 2075 
Q 2384 2075 2632 2365 
Q 2881 2656 2881 3163 
Q 2881 3666 2632 3958 
Q 2384 4250 1959 4250 
Q 1534 4250 1286 3958 
Q 1038 3666 1038 3163 
Q 1038 2656 1286 2365 
Q 1534 2075 1959 2075 
z
" transform="scale(0.015625)"/>
      </defs>
      <use xlink:href="#DejaVuSans-4c"/>
      <use xlink:href="#DejaVuSans-67" x="55.712891"/>
      <use xlink:href="#DejaVuSans-61" x="119.189453"/>
      <use xlink:href="#DejaVuSans-6c" x="180.46875"/>
      <use xlink:href="#DejaVuSans-73" x="208.251953"/>
      <use xlink:href="#DejaVuSans-39" x="260.351562"/>
     </g>
    </g>
   </g>
  </g>
 </g>
 <defs>
  <clipPath id="pcf79aca5da">
   <path d="M 232.742953 112.834602 
C 232.742953 101.555806 230.521277 90.386682 226.205068 79.966434 
C 221.88886 69.546185 215.562059 60.077459 207.586746 52.102146 
C 199.611433 44.126832 190.142707 37.800032 179.722458 33.483823 
C 169.302209 29.167615 158.133085 26.945938 146.854289 26.945938 
C 135.575493 26.945938 124.406369 29.167615 113.98612 33.483823 
C 103.565872 37.800032 94.097145 44.126832 86.121832 52.102146 
C 78.146519 60.077459 71.819719 69.546185 67.50351 79.966434 
C 63.187302 90.386682 60.965625 101.555806 60.965625 112.834602 
C 60.965625 124.113398 63.187302 135.282522 67.50351 145.702771 
C 71.819719 156.12302 78.146519 165.591746 86.121832 173.567059 
C 94.097145 181.542372 103.565872 187.869173 113.98612 192.185381 
C 124.406369 196.50159 135.575493 198.723267 146.854289 198.723267 
C 158.133085 198.723267 169.302209 196.50159 179.722458 192.185381 
C 190.142707 187.869173 199.611433 181.542372 207.586746 173.567059 
C 215.562059 165.591746 221.88886 156.12302 226.205068 145.702771 
C 230.521277 135.282522 232.742953 124.113398 232.742953 112.834602 
M 146.854289 112.834602 
C 146.854289 112.834602 146.854289 112.834602 146.854289 112.834602 
C 146.854289 112.834602 146.854289 112.834602 146.854289 112.834602 
C 146.854289 112.834602 146.854289 112.834602 146.854289 112.834602 
C 146.854289 112.834602 146.854289 112.834602 146.854289 112.834602 
C 146.854289 112.834602 146.854289 112.834602 146.854289 112.834602 
C 146.854289 112.834602 146.854289 112.834602 146.854289 112.834602 
C 146.854289 112.834602 146.854289 112.834602 146.854289 112.834602 
C 146.854289 112.834602 146.854289 112.834602 146.854289 112.834602 
C 146.854289 112.834602 146.854289 112.834602 146.854289 112.834602 
C 146.854289 112.834602 146.854289 112.834602 146.854289 112.834602 
C 146.854289 112.834602 146.854289 112.834602 146.854289 112.834602 
C 146.854289 112.834602 146.854289 112.834602 146.854289 112.834602 
C 146.854289 112.834602 146.854289 112.834602 146.854289 112.834602 
C 146.854289 112.834602 146.854289 112.834602 146.854289 112.834602 
C 146.854289 112.834602 146.854289 112.834602 146.854289 112.834602 
C 146.854289 112.834602 146.854289 112.834602 146.854289 112.834602 
z
"/>
  </clipPath>
 </defs>
</svg>
