<?xml version="1.0" encoding="utf-8" standalone="no"?>
<!DOCTYPE svg PUBLIC "-//W3C//DTD SVG 1.1//EN"
  "http://www.w3.org/Graphics/SVG/1.1/DTD/svg11.dtd">
<svg xmlns:xlink="http://www.w3.org/1999/xlink" width="308.016391pt" height="318.475746pt" viewBox="0 0 308.016391 318.475746" xmlns="http://www.w3.org/2000/svg" version="1.1">
 <metadata>
  <rdf:RDF xmlns:dc="http://purl.org/dc/elements/1.1/" xmlns:cc="http://creativecommons.org/ns#" xmlns:rdf="http://www.w3.org/1999/02/22-rdf-syntax-ns#">
   <cc:Work>
    <dc:type rdf:resource="http://purl.org/dc/dcmitype/StillImage"/>
    <dc:date>2025-07-08T22:06:29.433507</dc:date>
    <dc:format>image/svg+xml</dc:format>
    <dc:creator>
     <cc:Agent>
      <dc:title>Matplotlib v3.9.4, https://matplotlib.org/</dc:title>
     </cc:Agent>
    </dc:creator>
   </cc:Work>
  </rdf:RDF>
 </metadata>
 <defs>
  <style type="text/css">*{stroke-linejoin: round; stroke-linecap: butt}</style>
 </defs>
 <g id="figure_1">
  <g id="patch_1">
   <path d="M -0 318.475746 
L 308.016391 318.475746 
L 308.016391 0 
L -0 0 
z
" style="fill: #ffffff"/>
  </g>
  <g id="axes_1">
   <g id="patch_2">
    <path d="M 251.508578 157.717983 
C 251.508578 146.734654 249.345102 135.858124 245.141964 125.710852 
C 240.938826 115.563579 234.777767 106.342902 227.011381 98.576516 
C 219.244995 90.81013 210.024318 84.649071 199.877045 80.445933 
C 189.729773 76.242795 178.853243 74.079319 167.869914 74.079319 
C 156.886585 74.079319 146.010056 76.242795 135.862783 80.445933 
C 125.71551 84.649071 116.494834 90.81013 108.728448 98.576516 
C 100.962061 106.342902 94.801002 115.563579 90.597864 125.710852 
C 86.394726 135.858124 84.23125 146.734654 84.23125 157.717983 
C 84.23125 168.701312 86.394726 179.577841 90.597864 189.725114 
C 94.801002 199.872386 100.962061 209.093063 108.728448 216.859449 
C 116.494834 224.625836 125.71551 230.786895 135.862783 234.990033 
C 146.010056 239.193171 156.886585 241.356647 167.869914 241.356647 
C 178.853243 241.356647 189.729773 239.193171 199.877045 234.990033 
C 210.024318 230.786895 219.244995 224.625836 227.011381 216.859449 
C 234.777767 209.093063 240.938826 199.872386 245.141964 189.725114 
C 249.345102 179.577841 251.508578 168.701312 251.508578 157.717983 
M 167.869914 157.717983 
C 167.869914 157.717983 167.869914 157.717983 167.869914 157.717983 
C 167.869914 157.717983 167.869914 157.717983 167.869914 157.717983 
C 167.869914 157.717983 167.869914 157.717983 167.869914 157.717983 
C 167.869914 157.717983 167.869914 157.717983 167.869914 157.717983 
C 167.869914 157.717983 167.869914 157.717983 167.869914 157.717983 
C 167.869914 157.717983 167.869914 157.717983 167.869914 157.717983 
C 167.869914 157.717983 167.869914 157.717983 167.869914 157.717983 
C 167.869914 157.717983 167.869914 157.717983 167.869914 157.717983 
C 167.869914 157.717983 167.869914 157.717983 167.869914 157.717983 
C 167.869914 157.717983 167.869914 157.717983 167.869914 157.717983 
C 167.869914 157.717983 167.869914 157.717983 167.869914 157.717983 
C 167.869914 157.717983 167.869914 157.717983 167.869914 157.717983 
C 167.869914 157.717983 167.869914 157.717983 167.869914 157.717983 
C 167.869914 157.717983 167.869914 157.717983 167.869914 157.717983 
C 167.869914 157.717983 167.869914 157.717983 167.869914 157.717983 
C 167.869914 157.717983 167.869914 157.717983 167.869914 157.717983 
z
" style="fill: #ffffff"/>
   </g>
   <g id="patch_3">
    <path d="M 233.427593 157.717983 
L 196.971156 107.313153 
L 155.311128 135.965527 
L 150.213416 157.717983 
L 159.426072 172.343146 
L 175.089973 170.223491 
z
" clip-path="url(#p77e45c475d)" style="fill: #1f77b4; opacity: 0.15"/>
   </g>
   <g id="patch_4">
    <path d="M 179.653816 157.717983 
L 183.064578 131.400053 
L 159.382857 143.017968 
L 132.959771 157.717983 
L 153.985215 181.766987 
L 205.887489 223.566354 
z
" clip-path="url(#p77e45c475d)" style="fill: #ff7f0e; opacity: 0.15"/>
   </g>
   <g id="patch_5">
    <path d="M 221.818033 157.717983 
L 193.701428 112.976488 
L 141.557518 112.143576 
L 142.47228 157.717983 
L 162.489595 167.03697 
L 169.603826 160.721206 
z
" clip-path="url(#p77e45c475d)" style="fill: #2ca02c; opacity: 0.15"/>
   </g>
   <g id="patch_6">
    <path d="M 174.095665 157.717983 
L 183.60497 130.464067 
L 164.638747 152.121436 
L 109.269118 157.717983 
L 140.658014 204.850376 
L 188.209534 192.947238 
z
" clip-path="url(#p77e45c475d)" style="fill: #d62728; opacity: 0.15"/>
   </g>
   <g id="patch_7">
    <path d="M 185.877137 157.717983 
L 189.83882 119.666721 
L 154.873135 135.206901 
L 104.257886 157.717983 
L 144.714207 197.824843 
L 167.869914 157.717983 
z
" clip-path="url(#p77e45c475d)" style="fill: #9467bd; opacity: 0.15"/>
   </g>
   <g id="patch_8">
    <path d="M 189.374276 157.717983 
L 177.00921 141.888258 
L 146.835165 121.284728 
L 144.564464 157.717983 
L 159.336005 172.499147 
L 205.688071 223.220952 
z
" clip-path="url(#p77e45c475d)" style="fill: #8c564b; opacity: 0.15"/>
   </g>
   <g id="matplotlib.axis_1">
    <g id="xtick_1">
     <g id="text_1">
      <!-- Th2 -->
      <g transform="translate(263.200766 163.236733) scale(0.2 -0.2)">
       <defs>
        <path id="DejaVuSans-54" d="M -19 4666 
L 3928 4666 
L 3928 4134 
L 2272 4134 
L 2272 0 
L 1638 0 
L 1638 4134 
L -19 4134 
L -19 4666 
z
" transform="scale(0.015625)"/>
        <path id="DejaVuSans-68" d="M 3513 2113 
L 3513 0 
L 2938 0 
L 2938 2094 
Q 2938 2591 2744 2837 
Q 2550 3084 2163 3084 
Q 1697 3084 1428 2787 
Q 1159 2491 1159 1978 
L 1159 0 
L 581 0 
L 581 4863 
L 1159 4863 
L 1159 2956 
Q 1366 3272 1645 3428 
Q 1925 3584 2291 3584 
Q 2894 3584 3203 3211 
Q 3513 2838 3513 2113 
z
" transform="scale(0.015625)"/>
        <path id="DejaVuSans-32" d="M 1228 531 
L 3431 531 
L 3431 0 
L 469 0 
L 469 531 
Q 828 903 1448 1529 
Q 2069 2156 2228 2338 
Q 2531 2678 2651 2914 
Q 2772 3150 2772 3378 
Q 2772 3750 2511 3984 
Q 2250 4219 1831 4219 
Q 1534 4219 1204 4116 
Q 875 4013 500 3803 
L 500 4441 
Q 881 4594 1212 4672 
Q 1544 4750 1819 4750 
Q 2544 4750 2975 4387 
Q 3406 4025 3406 3419 
Q 3406 3131 3298 2873 
Q 3191 2616 2906 2266 
Q 2828 2175 2409 1742 
Q 1991 1309 1228 531 
z
" transform="scale(0.015625)"/>
       </defs>
       <use xlink:href="#DejaVuSans-54"/>
       <use xlink:href="#DejaVuSans-68" x="61.083984"/>
       <use xlink:href="#DejaVuSans-32" x="124.462891"/>
      </g>
     </g>
    </g>
    <g id="xtick_2">
     <g id="text_2">
      <!-- Treg -->
      <g transform="translate(203.918934 64.38975) scale(0.2 -0.2)">
       <defs>
        <path id="DejaVuSans-72" d="M 2631 2963 
Q 2534 3019 2420 3045 
Q 2306 3072 2169 3072 
Q 1681 3072 1420 2755 
Q 1159 2438 1159 1844 
L 1159 0 
L 581 0 
L 581 3500 
L 1159 3500 
L 1159 2956 
Q 1341 3275 1631 3429 
Q 1922 3584 2338 3584 
Q 2397 3584 2469 3576 
Q 2541 3569 2628 3553 
L 2631 2963 
z
" transform="scale(0.015625)"/>
        <path id="DejaVuSans-65" d="M 3597 1894 
L 3597 1613 
L 953 1613 
Q 991 1019 1311 708 
Q 1631 397 2203 397 
Q 2534 397 2845 478 
Q 3156 559 3463 722 
L 3463 178 
Q 3153 47 2828 -22 
Q 2503 -91 2169 -91 
Q 1331 -91 842 396 
Q 353 884 353 1716 
Q 353 2575 817 3079 
Q 1281 3584 2069 3584 
Q 2775 3584 3186 3129 
Q 3597 2675 3597 1894 
z
M 3022 2063 
Q 3016 2534 2758 2815 
Q 2500 3097 2075 3097 
Q 1594 3097 1305 2825 
Q 1016 2553 972 2059 
L 3022 2063 
z
" transform="scale(0.015625)"/>
        <path id="DejaVuSans-67" d="M 2906 1791 
Q 2906 2416 2648 2759 
Q 2391 3103 1925 3103 
Q 1463 3103 1205 2759 
Q 947 2416 947 1791 
Q 947 1169 1205 825 
Q 1463 481 1925 481 
Q 2391 481 2648 825 
Q 2906 1169 2906 1791 
z
M 3481 434 
Q 3481 -459 3084 -895 
Q 2688 -1331 1869 -1331 
Q 1566 -1331 1297 -1286 
Q 1028 -1241 775 -1147 
L 775 -588 
Q 1028 -725 1275 -790 
Q 1522 -856 1778 -856 
Q 2344 -856 2625 -561 
Q 2906 -266 2906 331 
L 2906 616 
Q 2728 306 2450 153 
Q 2172 0 1784 0 
Q 1141 0 747 490 
Q 353 981 353 1791 
Q 353 2603 747 3093 
Q 1141 3584 1784 3584 
Q 2172 3584 2450 3431 
Q 2728 3278 2906 2969 
L 2906 3500 
L 3481 3500 
L 3481 434 
z
" transform="scale(0.015625)"/>
       </defs>
       <use xlink:href="#DejaVuSans-54"/>
       <use xlink:href="#DejaVuSans-72" x="46.333984"/>
       <use xlink:href="#DejaVuSans-65" x="85.197266"/>
       <use xlink:href="#DejaVuSans-67" x="146.720703"/>
      </g>
     </g>
    </g>
    <g id="xtick_3">
     <g id="text_3">
      <!-- Tfh -->
      <g transform="translate(94.834957 64.38975) scale(0.2 -0.2)">
       <defs>
        <path id="DejaVuSans-66" d="M 2375 4863 
L 2375 4384 
L 1825 4384 
Q 1516 4384 1395 4259 
Q 1275 4134 1275 3809 
L 1275 3500 
L 2222 3500 
L 2222 3053 
L 1275 3053 
L 1275 0 
L 697 0 
L 697 3053 
L 147 3053 
L 147 3500 
L 697 3500 
L 697 3744 
Q 697 4328 969 4595 
Q 1241 4863 1831 4863 
L 2375 4863 
z
" transform="scale(0.015625)"/>
       </defs>
       <use xlink:href="#DejaVuSans-54"/>
       <use xlink:href="#DejaVuSans-66" x="61.083984"/>
       <use xlink:href="#DejaVuSans-68" x="96.289062"/>
      </g>
     </g>
    </g>
    <g id="xtick_4">
     <g id="text_4">
      <!-- Resting T -->
      <g transform="translate(7.2 163.236733) scale(0.2 -0.2)">
       <defs>
        <path id="DejaVuSans-52" d="M 2841 2188 
Q 3044 2119 3236 1894 
Q 3428 1669 3622 1275 
L 4263 0 
L 3584 0 
L 2988 1197 
Q 2756 1666 2539 1819 
Q 2322 1972 1947 1972 
L 1259 1972 
L 1259 0 
L 628 0 
L 628 4666 
L 2053 4666 
Q 2853 4666 3247 4331 
Q 3641 3997 3641 3322 
Q 3641 2881 3436 2590 
Q 3231 2300 2841 2188 
z
M 1259 4147 
L 1259 2491 
L 2053 2491 
Q 2509 2491 2742 2702 
Q 2975 2913 2975 3322 
Q 2975 3731 2742 3939 
Q 2509 4147 2053 4147 
L 1259 4147 
z
" transform="scale(0.015625)"/>
        <path id="DejaVuSans-73" d="M 2834 3397 
L 2834 2853 
Q 2591 2978 2328 3040 
Q 2066 3103 1784 3103 
Q 1356 3103 1142 2972 
Q 928 2841 928 2578 
Q 928 2378 1081 2264 
Q 1234 2150 1697 2047 
L 1894 2003 
Q 2506 1872 2764 1633 
Q 3022 1394 3022 966 
Q 3022 478 2636 193 
Q 2250 -91 1575 -91 
Q 1294 -91 989 -36 
Q 684 19 347 128 
L 347 722 
Q 666 556 975 473 
Q 1284 391 1588 391 
Q 1994 391 2212 530 
Q 2431 669 2431 922 
Q 2431 1156 2273 1281 
Q 2116 1406 1581 1522 
L 1381 1569 
Q 847 1681 609 1914 
Q 372 2147 372 2553 
Q 372 3047 722 3315 
Q 1072 3584 1716 3584 
Q 2034 3584 2315 3537 
Q 2597 3491 2834 3397 
z
" transform="scale(0.015625)"/>
        <path id="DejaVuSans-74" d="M 1172 4494 
L 1172 3500 
L 2356 3500 
L 2356 3053 
L 1172 3053 
L 1172 1153 
Q 1172 725 1289 603 
Q 1406 481 1766 481 
L 2356 481 
L 2356 0 
L 1766 0 
Q 1100 0 847 248 
Q 594 497 594 1153 
L 594 3053 
L 172 3053 
L 172 3500 
L 594 3500 
L 594 4494 
L 1172 4494 
z
" transform="scale(0.015625)"/>
        <path id="DejaVuSans-69" d="M 603 3500 
L 1178 3500 
L 1178 0 
L 603 0 
L 603 3500 
z
M 603 4863 
L 1178 4863 
L 1178 4134 
L 603 4134 
L 603 4863 
z
" transform="scale(0.015625)"/>
        <path id="DejaVuSans-6e" d="M 3513 2113 
L 3513 0 
L 2938 0 
L 2938 2094 
Q 2938 2591 2744 2837 
Q 2550 3084 2163 3084 
Q 1697 3084 1428 2787 
Q 1159 2491 1159 1978 
L 1159 0 
L 581 0 
L 581 3500 
L 1159 3500 
L 1159 2956 
Q 1366 3272 1645 3428 
Q 1925 3584 2291 3584 
Q 2894 3584 3203 3211 
Q 3513 2838 3513 2113 
z
" transform="scale(0.015625)"/>
        <path id="DejaVuSans-20" transform="scale(0.015625)"/>
       </defs>
       <use xlink:href="#DejaVuSans-52"/>
       <use xlink:href="#DejaVuSans-65" x="64.982422"/>
       <use xlink:href="#DejaVuSans-73" x="126.505859"/>
       <use xlink:href="#DejaVuSans-74" x="178.605469"/>
       <use xlink:href="#DejaVuSans-69" x="217.814453"/>
       <use xlink:href="#DejaVuSans-6e" x="245.597656"/>
       <use xlink:href="#DejaVuSans-67" x="308.976562"/>
       <use xlink:href="#DejaVuSans-20" x="372.453125"/>
       <use xlink:href="#DejaVuSans-54" x="404.240234"/>
      </g>
     </g>
    </g>
    <g id="xtick_5">
     <g id="text_5">
      <!-- CD8+ T -->
      <g transform="translate(72.089645 262.083716) scale(0.2 -0.2)">
       <defs>
        <path id="DejaVuSans-43" d="M 4122 4306 
L 4122 3641 
Q 3803 3938 3442 4084 
Q 3081 4231 2675 4231 
Q 1875 4231 1450 3742 
Q 1025 3253 1025 2328 
Q 1025 1406 1450 917 
Q 1875 428 2675 428 
Q 3081 428 3442 575 
Q 3803 722 4122 1019 
L 4122 359 
Q 3791 134 3420 21 
Q 3050 -91 2638 -91 
Q 1578 -91 968 557 
Q 359 1206 359 2328 
Q 359 3453 968 4101 
Q 1578 4750 2638 4750 
Q 3056 4750 3426 4639 
Q 3797 4528 4122 4306 
z
" transform="scale(0.015625)"/>
        <path id="DejaVuSans-44" d="M 1259 4147 
L 1259 519 
L 2022 519 
Q 2988 519 3436 956 
Q 3884 1394 3884 2338 
Q 3884 3275 3436 3711 
Q 2988 4147 2022 4147 
L 1259 4147 
z
M 628 4666 
L 1925 4666 
Q 3281 4666 3915 4102 
Q 4550 3538 4550 2338 
Q 4550 1131 3912 565 
Q 3275 0 1925 0 
L 628 0 
L 628 4666 
z
" transform="scale(0.015625)"/>
        <path id="DejaVuSans-38" d="M 2034 2216 
Q 1584 2216 1326 1975 
Q 1069 1734 1069 1313 
Q 1069 891 1326 650 
Q 1584 409 2034 409 
Q 2484 409 2743 651 
Q 3003 894 3003 1313 
Q 3003 1734 2745 1975 
Q 2488 2216 2034 2216 
z
M 1403 2484 
Q 997 2584 770 2862 
Q 544 3141 544 3541 
Q 544 4100 942 4425 
Q 1341 4750 2034 4750 
Q 2731 4750 3128 4425 
Q 3525 4100 3525 3541 
Q 3525 3141 3298 2862 
Q 3072 2584 2669 2484 
Q 3125 2378 3379 2068 
Q 3634 1759 3634 1313 
Q 3634 634 3220 271 
Q 2806 -91 2034 -91 
Q 1263 -91 848 271 
Q 434 634 434 1313 
Q 434 1759 690 2068 
Q 947 2378 1403 2484 
z
M 1172 3481 
Q 1172 3119 1398 2916 
Q 1625 2713 2034 2713 
Q 2441 2713 2670 2916 
Q 2900 3119 2900 3481 
Q 2900 3844 2670 4047 
Q 2441 4250 2034 4250 
Q 1625 4250 1398 4047 
Q 1172 3844 1172 3481 
z
" transform="scale(0.015625)"/>
        <path id="DejaVuSans-2b" d="M 2944 4013 
L 2944 2272 
L 4684 2272 
L 4684 1741 
L 2944 1741 
L 2944 0 
L 2419 0 
L 2419 1741 
L 678 1741 
L 678 2272 
L 2419 2272 
L 2419 4013 
L 2944 4013 
z
" transform="scale(0.015625)"/>
       </defs>
       <use xlink:href="#DejaVuSans-43"/>
       <use xlink:href="#DejaVuSans-44" x="69.824219"/>
       <use xlink:href="#DejaVuSans-38" x="146.826172"/>
       <use xlink:href="#DejaVuSans-2b" x="210.449219"/>
       <use xlink:href="#DejaVuSans-20" x="294.238281"/>
       <use xlink:href="#DejaVuSans-54" x="326.025391"/>
      </g>
     </g>
    </g>
    <g id="xtick_6">
     <g id="text_6">
      <!-- B -->
      <g transform="translate(218.078309 262.083716) scale(0.2 -0.2)">
       <defs>
        <path id="DejaVuSans-42" d="M 1259 2228 
L 1259 519 
L 2272 519 
Q 2781 519 3026 730 
Q 3272 941 3272 1375 
Q 3272 1813 3026 2020 
Q 2781 2228 2272 2228 
L 1259 2228 
z
M 1259 4147 
L 1259 2741 
L 2194 2741 
Q 2656 2741 2882 2914 
Q 3109 3088 3109 3444 
Q 3109 3797 2882 3972 
Q 2656 4147 2194 4147 
L 1259 4147 
z
M 628 4666 
L 2241 4666 
Q 2963 4666 3353 4366 
Q 3744 4066 3744 3513 
Q 3744 3084 3544 2831 
Q 3344 2578 2956 2516 
Q 3422 2416 3680 2098 
Q 3938 1781 3938 1306 
Q 3938 681 3513 340 
Q 3088 0 2303 0 
L 628 0 
L 628 4666 
z
" transform="scale(0.015625)"/>
       </defs>
       <use xlink:href="#DejaVuSans-42"/>
      </g>
     </g>
    </g>
   </g>
   <g id="matplotlib.axis_2">
    <g id="ytick_1"/>
    <g id="ytick_2"/>
    <g id="ytick_3"/>
    <g id="ytick_4"/>
    <g id="ytick_5"/>
   </g>
   <g id="line2d_1">
    <path d="M 186.878702 157.717983 
L 177.374308 141.25589 
" clip-path="url(#p77e45c475d)" style="fill: none; stroke: #808080; stroke-opacity: 0.15; stroke-width: 0.5; stroke-linecap: square"/>
   </g>
   <g id="line2d_2">
    <path d="M 177.374308 141.25589 
L 158.365521 141.25589 
" clip-path="url(#p77e45c475d)" style="fill: none; stroke: #808080; stroke-opacity: 0.15; stroke-width: 0.5; stroke-linecap: square"/>
   </g>
   <g id="line2d_3">
    <path d="M 158.365521 141.25589 
L 148.861127 157.717983 
" clip-path="url(#p77e45c475d)" style="fill: none; stroke: #808080; stroke-opacity: 0.15; stroke-width: 0.5; stroke-linecap: square"/>
   </g>
   <g id="line2d_4">
    <path d="M 148.861127 157.717983 
L 158.365521 174.180075 
" clip-path="url(#p77e45c475d)" style="fill: none; stroke: #808080; stroke-opacity: 0.15; stroke-width: 0.5; stroke-linecap: square"/>
   </g>
   <g id="line2d_5">
    <path d="M 158.365521 174.180075 
L 177.374308 174.180075 
" clip-path="url(#p77e45c475d)" style="fill: none; stroke: #808080; stroke-opacity: 0.15; stroke-width: 0.5; stroke-linecap: square"/>
   </g>
   <g id="line2d_6">
    <path d="M 177.374308 174.180075 
L 186.878702 157.717983 
" clip-path="url(#p77e45c475d)" style="fill: none; stroke: #808080; stroke-opacity: 0.15; stroke-width: 0.5; stroke-linecap: square"/>
   </g>
   <g id="line2d_7">
    <path d="M 205.887489 157.717983 
L 186.878702 124.793797 
" clip-path="url(#p77e45c475d)" style="fill: none; stroke: #808080; stroke-opacity: 0.15; stroke-width: 0.5; stroke-linecap: square"/>
   </g>
   <g id="line2d_8">
    <path d="M 186.878702 124.793797 
L 148.861127 124.793797 
" clip-path="url(#p77e45c475d)" style="fill: none; stroke: #808080; stroke-opacity: 0.15; stroke-width: 0.5; stroke-linecap: square"/>
   </g>
   <g id="line2d_9">
    <path d="M 148.861127 124.793797 
L 129.85234 157.717983 
" clip-path="url(#p77e45c475d)" style="fill: none; stroke: #808080; stroke-opacity: 0.15; stroke-width: 0.5; stroke-linecap: square"/>
   </g>
   <g id="line2d_10">
    <path d="M 129.85234 157.717983 
L 148.861127 190.642168 
" clip-path="url(#p77e45c475d)" style="fill: none; stroke: #808080; stroke-opacity: 0.15; stroke-width: 0.5; stroke-linecap: square"/>
   </g>
   <g id="line2d_11">
    <path d="M 148.861127 190.642168 
L 186.878702 190.642168 
" clip-path="url(#p77e45c475d)" style="fill: none; stroke: #808080; stroke-opacity: 0.15; stroke-width: 0.5; stroke-linecap: square"/>
   </g>
   <g id="line2d_12">
    <path d="M 186.878702 190.642168 
L 205.887489 157.717983 
" clip-path="url(#p77e45c475d)" style="fill: none; stroke: #808080; stroke-opacity: 0.15; stroke-width: 0.5; stroke-linecap: square"/>
   </g>
   <g id="line2d_13">
    <path d="M 224.896276 157.717983 
L 196.383095 108.331705 
" clip-path="url(#p77e45c475d)" style="fill: none; stroke: #808080; stroke-opacity: 0.15; stroke-width: 0.5; stroke-linecap: square"/>
   </g>
   <g id="line2d_14">
    <path d="M 196.383095 108.331705 
L 139.356733 108.331705 
" clip-path="url(#p77e45c475d)" style="fill: none; stroke: #808080; stroke-opacity: 0.15; stroke-width: 0.5; stroke-linecap: square"/>
   </g>
   <g id="line2d_15">
    <path d="M 139.356733 108.331705 
L 110.843552 157.717983 
" clip-path="url(#p77e45c475d)" style="fill: none; stroke: #808080; stroke-opacity: 0.15; stroke-width: 0.5; stroke-linecap: square"/>
   </g>
   <g id="line2d_16">
    <path d="M 110.843552 157.717983 
L 139.356733 207.104261 
" clip-path="url(#p77e45c475d)" style="fill: none; stroke: #808080; stroke-opacity: 0.15; stroke-width: 0.5; stroke-linecap: square"/>
   </g>
   <g id="line2d_17">
    <path d="M 139.356733 207.104261 
L 196.383095 207.104261 
" clip-path="url(#p77e45c475d)" style="fill: none; stroke: #808080; stroke-opacity: 0.15; stroke-width: 0.5; stroke-linecap: square"/>
   </g>
   <g id="line2d_18">
    <path d="M 196.383095 207.104261 
L 224.896276 157.717983 
" clip-path="url(#p77e45c475d)" style="fill: none; stroke: #808080; stroke-opacity: 0.15; stroke-width: 0.5; stroke-linecap: square"/>
   </g>
   <g id="line2d_19">
    <path d="M 243.905063 157.717983 
L 205.887489 91.869612 
" clip-path="url(#p77e45c475d)" style="fill: none; stroke: #808080; stroke-opacity: 0.15; stroke-width: 0.5; stroke-linecap: square"/>
   </g>
   <g id="line2d_20">
    <path d="M 205.887489 91.869612 
L 129.85234 91.869612 
" clip-path="url(#p77e45c475d)" style="fill: none; stroke: #808080; stroke-opacity: 0.15; stroke-width: 0.5; stroke-linecap: square"/>
   </g>
   <g id="line2d_21">
    <path d="M 129.85234 91.869612 
L 91.834765 157.717983 
" clip-path="url(#p77e45c475d)" style="fill: none; stroke: #808080; stroke-opacity: 0.15; stroke-width: 0.5; stroke-linecap: square"/>
   </g>
   <g id="line2d_22">
    <path d="M 91.834765 157.717983 
L 129.85234 223.566354 
" clip-path="url(#p77e45c475d)" style="fill: none; stroke: #808080; stroke-opacity: 0.15; stroke-width: 0.5; stroke-linecap: square"/>
   </g>
   <g id="line2d_23">
    <path d="M 129.85234 223.566354 
L 205.887489 223.566354 
" clip-path="url(#p77e45c475d)" style="fill: none; stroke: #808080; stroke-opacity: 0.15; stroke-width: 0.5; stroke-linecap: square"/>
   </g>
   <g id="line2d_24">
    <path d="M 205.887489 223.566354 
L 243.905063 157.717983 
" clip-path="url(#p77e45c475d)" style="fill: none; stroke: #808080; stroke-opacity: 0.15; stroke-width: 0.5; stroke-linecap: square"/>
   </g>
   <g id="line2d_25">
    <path d="M 167.869914 157.717983 
L 251.508578 157.717983 
" clip-path="url(#p77e45c475d)" style="fill: none; stroke: #808080; stroke-opacity: 0.15; stroke-width: 0.5; stroke-linecap: square"/>
   </g>
   <g id="line2d_26">
    <path d="M 167.869914 157.717983 
L 209.689246 85.284775 
" clip-path="url(#p77e45c475d)" style="fill: none; stroke: #808080; stroke-opacity: 0.15; stroke-width: 0.5; stroke-linecap: square"/>
   </g>
   <g id="line2d_27">
    <path d="M 167.869914 157.717983 
L 126.050582 85.284775 
" clip-path="url(#p77e45c475d)" style="fill: none; stroke: #808080; stroke-opacity: 0.15; stroke-width: 0.5; stroke-linecap: square"/>
   </g>
   <g id="line2d_28">
    <path d="M 167.869914 157.717983 
L 84.23125 157.717983 
" clip-path="url(#p77e45c475d)" style="fill: none; stroke: #808080; stroke-opacity: 0.15; stroke-width: 0.5; stroke-linecap: square"/>
   </g>
   <g id="line2d_29">
    <path d="M 167.869914 157.717983 
L 126.050582 230.151191 
" clip-path="url(#p77e45c475d)" style="fill: none; stroke: #808080; stroke-opacity: 0.15; stroke-width: 0.5; stroke-linecap: square"/>
   </g>
   <g id="line2d_30">
    <path d="M 167.869914 157.717983 
L 209.689246 230.151191 
" clip-path="url(#p77e45c475d)" style="fill: none; stroke: #808080; stroke-opacity: 0.15; stroke-width: 0.5; stroke-linecap: square"/>
   </g>
   <g id="line2d_31">
    <path d="M 233.427593 157.717983 
L 196.971156 107.313153 
L 155.311128 135.965527 
L 150.213416 157.717983 
L 159.426072 172.343146 
L 175.089973 170.223491 
L 233.427593 157.717983 
" clip-path="url(#p77e45c475d)" style="fill: none; stroke: #1f77b4; stroke-linecap: square"/>
   </g>
   <g id="line2d_32">
    <path d="M 179.653816 157.717983 
L 183.064578 131.400053 
L 159.382857 143.017968 
L 132.959771 157.717983 
L 153.985215 181.766987 
L 205.887489 223.566354 
L 179.653816 157.717983 
" clip-path="url(#p77e45c475d)" style="fill: none; stroke: #ff7f0e; stroke-linecap: square"/>
   </g>
   <g id="line2d_33">
    <path d="M 221.818033 157.717983 
L 193.701428 112.976488 
L 141.557518 112.143576 
L 142.47228 157.717983 
L 162.489595 167.03697 
L 169.603826 160.721206 
L 221.818033 157.717983 
" clip-path="url(#p77e45c475d)" style="fill: none; stroke: #2ca02c; stroke-linecap: square"/>
   </g>
   <g id="line2d_34">
    <path d="M 174.095665 157.717983 
L 183.60497 130.464067 
L 164.638747 152.121436 
L 109.269118 157.717983 
L 140.658014 204.850376 
L 188.209534 192.947238 
L 174.095665 157.717983 
" clip-path="url(#p77e45c475d)" style="fill: none; stroke: #d62728; stroke-linecap: square"/>
   </g>
   <g id="line2d_35">
    <path d="M 185.877137 157.717983 
L 189.83882 119.666721 
L 154.873135 135.206901 
L 104.257886 157.717983 
L 144.714207 197.824843 
L 167.869914 157.717983 
L 185.877137 157.717983 
" clip-path="url(#p77e45c475d)" style="fill: none; stroke: #9467bd; stroke-linecap: square"/>
   </g>
   <g id="line2d_36">
    <path d="M 189.374276 157.717983 
L 177.00921 141.888258 
L 146.835165 121.284728 
L 144.564464 157.717983 
L 159.336005 172.499147 
L 205.688071 223.220952 
L 189.374276 157.717983 
" clip-path="url(#p77e45c475d)" style="fill: none; stroke: #8c564b; stroke-linecap: square"/>
   </g>
   <g id="text_7">
    <!-- Receptors -->
    <g transform="translate(133.739289 16.318125) scale(0.12 -0.12)">
     <defs>
      <path id="DejaVuSans-Bold-52" d="M 2297 2597 
Q 2675 2597 2839 2737 
Q 3003 2878 3003 3200 
Q 3003 3519 2839 3656 
Q 2675 3794 2297 3794 
L 1791 3794 
L 1791 2597 
L 2297 2597 
z
M 1791 1766 
L 1791 0 
L 588 0 
L 588 4666 
L 2425 4666 
Q 3347 4666 3776 4356 
Q 4206 4047 4206 3378 
Q 4206 2916 3982 2619 
Q 3759 2322 3309 2181 
Q 3556 2125 3751 1926 
Q 3947 1728 4147 1325 
L 4800 0 
L 3519 0 
L 2950 1159 
Q 2778 1509 2601 1637 
Q 2425 1766 2131 1766 
L 1791 1766 
z
" transform="scale(0.015625)"/>
      <path id="DejaVuSans-Bold-65" d="M 4031 1759 
L 4031 1441 
L 1416 1441 
Q 1456 1047 1700 850 
Q 1944 653 2381 653 
Q 2734 653 3104 758 
Q 3475 863 3866 1075 
L 3866 213 
Q 3469 63 3072 -14 
Q 2675 -91 2278 -91 
Q 1328 -91 801 392 
Q 275 875 275 1747 
Q 275 2603 792 3093 
Q 1309 3584 2216 3584 
Q 3041 3584 3536 3087 
Q 4031 2591 4031 1759 
z
M 2881 2131 
Q 2881 2450 2695 2645 
Q 2509 2841 2209 2841 
Q 1884 2841 1681 2658 
Q 1478 2475 1428 2131 
L 2881 2131 
z
" transform="scale(0.015625)"/>
      <path id="DejaVuSans-Bold-63" d="M 3366 3391 
L 3366 2478 
Q 3138 2634 2908 2709 
Q 2678 2784 2431 2784 
Q 1963 2784 1702 2511 
Q 1441 2238 1441 1747 
Q 1441 1256 1702 982 
Q 1963 709 2431 709 
Q 2694 709 2930 787 
Q 3166 866 3366 1019 
L 3366 103 
Q 3103 6 2833 -42 
Q 2563 -91 2291 -91 
Q 1344 -91 809 395 
Q 275 881 275 1747 
Q 275 2613 809 3098 
Q 1344 3584 2291 3584 
Q 2566 3584 2833 3536 
Q 3100 3488 3366 3391 
z
" transform="scale(0.015625)"/>
      <path id="DejaVuSans-Bold-70" d="M 1656 506 
L 1656 -1331 
L 538 -1331 
L 538 3500 
L 1656 3500 
L 1656 2988 
Q 1888 3294 2169 3439 
Q 2450 3584 2816 3584 
Q 3463 3584 3878 3070 
Q 4294 2556 4294 1747 
Q 4294 938 3878 423 
Q 3463 -91 2816 -91 
Q 2450 -91 2169 54 
Q 1888 200 1656 506 
z
M 2400 2772 
Q 2041 2772 1848 2508 
Q 1656 2244 1656 1747 
Q 1656 1250 1848 986 
Q 2041 722 2400 722 
Q 2759 722 2948 984 
Q 3138 1247 3138 1747 
Q 3138 2247 2948 2509 
Q 2759 2772 2400 2772 
z
" transform="scale(0.015625)"/>
      <path id="DejaVuSans-Bold-74" d="M 1759 4494 
L 1759 3500 
L 2913 3500 
L 2913 2700 
L 1759 2700 
L 1759 1216 
Q 1759 972 1856 886 
Q 1953 800 2241 800 
L 2816 800 
L 2816 0 
L 1856 0 
Q 1194 0 917 276 
Q 641 553 641 1216 
L 641 2700 
L 84 2700 
L 84 3500 
L 641 3500 
L 641 4494 
L 1759 4494 
z
" transform="scale(0.015625)"/>
      <path id="DejaVuSans-Bold-6f" d="M 2203 2784 
Q 1831 2784 1636 2517 
Q 1441 2250 1441 1747 
Q 1441 1244 1636 976 
Q 1831 709 2203 709 
Q 2569 709 2762 976 
Q 2956 1244 2956 1747 
Q 2956 2250 2762 2517 
Q 2569 2784 2203 2784 
z
M 2203 3584 
Q 3106 3584 3614 3096 
Q 4122 2609 4122 1747 
Q 4122 884 3614 396 
Q 3106 -91 2203 -91 
Q 1297 -91 786 396 
Q 275 884 275 1747 
Q 275 2609 786 3096 
Q 1297 3584 2203 3584 
z
" transform="scale(0.015625)"/>
      <path id="DejaVuSans-Bold-72" d="M 3138 2547 
Q 2991 2616 2845 2648 
Q 2700 2681 2553 2681 
Q 2122 2681 1889 2404 
Q 1656 2128 1656 1613 
L 1656 0 
L 538 0 
L 538 3500 
L 1656 3500 
L 1656 2925 
Q 1872 3269 2151 3426 
Q 2431 3584 2822 3584 
Q 2878 3584 2943 3579 
Q 3009 3575 3134 3559 
L 3138 2547 
z
" transform="scale(0.015625)"/>
      <path id="DejaVuSans-Bold-73" d="M 3272 3391 
L 3272 2541 
Q 2913 2691 2578 2766 
Q 2244 2841 1947 2841 
Q 1628 2841 1473 2761 
Q 1319 2681 1319 2516 
Q 1319 2381 1436 2309 
Q 1553 2238 1856 2203 
L 2053 2175 
Q 2913 2066 3209 1816 
Q 3506 1566 3506 1031 
Q 3506 472 3093 190 
Q 2681 -91 1863 -91 
Q 1516 -91 1145 -36 
Q 775 19 384 128 
L 384 978 
Q 719 816 1070 734 
Q 1422 653 1784 653 
Q 2113 653 2278 743 
Q 2444 834 2444 1013 
Q 2444 1163 2330 1236 
Q 2216 1309 1875 1350 
L 1678 1375 
Q 931 1469 631 1722 
Q 331 1975 331 2491 
Q 331 3047 712 3315 
Q 1094 3584 1881 3584 
Q 2191 3584 2531 3537 
Q 2872 3491 3272 3391 
z
" transform="scale(0.015625)"/>
     </defs>
     <use xlink:href="#DejaVuSans-Bold-52"/>
     <use xlink:href="#DejaVuSans-Bold-65" x="77.001953"/>
     <use xlink:href="#DejaVuSans-Bold-63" x="144.824219"/>
     <use xlink:href="#DejaVuSans-Bold-65" x="204.101562"/>
     <use xlink:href="#DejaVuSans-Bold-70" x="271.923828"/>
     <use xlink:href="#DejaVuSans-Bold-74" x="343.505859"/>
     <use xlink:href="#DejaVuSans-Bold-6f" x="391.308594"/>
     <use xlink:href="#DejaVuSans-Bold-72" x="460.009766"/>
     <use xlink:href="#DejaVuSans-Bold-73" x="509.326172"/>
    </g>
    <!--  -->
    <g transform="translate(167.869914 29.7555) scale(0.12 -0.12)"/>
    <!--  -->
    <g transform="translate(167.869914 43.192875) scale(0.12 -0.12)"/>
   </g>
   <g id="legend_1">
    <g id="line2d_37">
     <path d="M 45.258977 282.166371 
L 57.258977 282.166371 
L 69.258977 282.166371 
" style="fill: none; stroke: #1f77b4; stroke-linecap: square"/>
    </g>
    <g id="text_8">
     <!-- Il2ra -->
     <g style="fill: #1f77b4" transform="translate(78.858977 286.366371) scale(0.12 -0.12)">
      <defs>
       <path id="DejaVuSans-49" d="M 628 4666 
L 1259 4666 
L 1259 0 
L 628 0 
L 628 4666 
z
" transform="scale(0.015625)"/>
       <path id="DejaVuSans-6c" d="M 603 4863 
L 1178 4863 
L 1178 0 
L 603 0 
L 603 4863 
z
" transform="scale(0.015625)"/>
       <path id="DejaVuSans-61" d="M 2194 1759 
Q 1497 1759 1228 1600 
Q 959 1441 959 1056 
Q 959 750 1161 570 
Q 1363 391 1709 391 
Q 2188 391 2477 730 
Q 2766 1069 2766 1631 
L 2766 1759 
L 2194 1759 
z
M 3341 1997 
L 3341 0 
L 2766 0 
L 2766 531 
Q 2569 213 2275 61 
Q 1981 -91 1556 -91 
Q 1019 -91 701 211 
Q 384 513 384 1019 
Q 384 1609 779 1909 
Q 1175 2209 1959 2209 
L 2766 2209 
L 2766 2266 
Q 2766 2663 2505 2880 
Q 2244 3097 1772 3097 
Q 1472 3097 1187 3025 
Q 903 2953 641 2809 
L 641 3341 
Q 956 3463 1253 3523 
Q 1550 3584 1831 3584 
Q 2591 3584 2966 3190 
Q 3341 2797 3341 1997 
z
" transform="scale(0.015625)"/>
      </defs>
      <use xlink:href="#DejaVuSans-49"/>
      <use xlink:href="#DejaVuSans-6c" x="29.492188"/>
      <use xlink:href="#DejaVuSans-32" x="57.275391"/>
      <use xlink:href="#DejaVuSans-72" x="120.898438"/>
      <use xlink:href="#DejaVuSans-61" x="162.011719"/>
     </g>
    </g>
    <g id="line2d_38">
     <path d="M 45.258977 299.780121 
L 57.258977 299.780121 
L 69.258977 299.780121 
" style="fill: none; stroke: #ff7f0e; stroke-linecap: square"/>
    </g>
    <g id="text_9">
     <!-- Cxcr4 -->
     <g style="fill: #ff7f0e" transform="translate(78.858977 303.980121) scale(0.12 -0.12)">
      <defs>
       <path id="DejaVuSans-78" d="M 3513 3500 
L 2247 1797 
L 3578 0 
L 2900 0 
L 1881 1375 
L 863 0 
L 184 0 
L 1544 1831 
L 300 3500 
L 978 3500 
L 1906 2253 
L 2834 3500 
L 3513 3500 
z
" transform="scale(0.015625)"/>
       <path id="DejaVuSans-63" d="M 3122 3366 
L 3122 2828 
Q 2878 2963 2633 3030 
Q 2388 3097 2138 3097 
Q 1578 3097 1268 2742 
Q 959 2388 959 1747 
Q 959 1106 1268 751 
Q 1578 397 2138 397 
Q 2388 397 2633 464 
Q 2878 531 3122 666 
L 3122 134 
Q 2881 22 2623 -34 
Q 2366 -91 2075 -91 
Q 1284 -91 818 406 
Q 353 903 353 1747 
Q 353 2603 823 3093 
Q 1294 3584 2113 3584 
Q 2378 3584 2631 3529 
Q 2884 3475 3122 3366 
z
" transform="scale(0.015625)"/>
       <path id="DejaVuSans-34" d="M 2419 4116 
L 825 1625 
L 2419 1625 
L 2419 4116 
z
M 2253 4666 
L 3047 4666 
L 3047 1625 
L 3713 1625 
L 3713 1100 
L 3047 1100 
L 3047 0 
L 2419 0 
L 2419 1100 
L 313 1100 
L 313 1709 
L 2253 4666 
z
" transform="scale(0.015625)"/>
      </defs>
      <use xlink:href="#DejaVuSans-43"/>
      <use xlink:href="#DejaVuSans-78" x="69.824219"/>
      <use xlink:href="#DejaVuSans-63" x="127.253906"/>
      <use xlink:href="#DejaVuSans-72" x="182.234375"/>
      <use xlink:href="#DejaVuSans-34" x="223.347656"/>
     </g>
    </g>
    <g id="line2d_39">
     <path d="M 137.297102 282.166371 
L 149.297102 282.166371 
L 161.297102 282.166371 
" style="fill: none; stroke: #2ca02c; stroke-linecap: square"/>
    </g>
    <g id="text_10">
     <!-- Ccr4 -->
     <g style="fill: #2ca02c" transform="translate(170.897102 286.366371) scale(0.12 -0.12)">
      <use xlink:href="#DejaVuSans-43"/>
      <use xlink:href="#DejaVuSans-63" x="69.824219"/>
      <use xlink:href="#DejaVuSans-72" x="124.804688"/>
      <use xlink:href="#DejaVuSans-34" x="165.917969"/>
     </g>
    </g>
    <g id="line2d_40">
     <path d="M 137.297102 299.780121 
L 149.297102 299.780121 
L 161.297102 299.780121 
" style="fill: none; stroke: #d62728; stroke-linecap: square"/>
    </g>
    <g id="text_11">
     <!-- Il4ra -->
     <g style="fill: #d62728" transform="translate(170.897102 303.980121) scale(0.12 -0.12)">
      <use xlink:href="#DejaVuSans-49"/>
      <use xlink:href="#DejaVuSans-6c" x="29.492188"/>
      <use xlink:href="#DejaVuSans-34" x="57.275391"/>
      <use xlink:href="#DejaVuSans-72" x="120.898438"/>
      <use xlink:href="#DejaVuSans-61" x="162.011719"/>
     </g>
    </g>
    <g id="line2d_41">
     <path d="M 222.442727 282.166371 
L 234.442727 282.166371 
L 246.442727 282.166371 
" style="fill: none; stroke: #9467bd; stroke-linecap: square"/>
    </g>
    <g id="text_12">
     <!-- Il6st -->
     <g style="fill: #9467bd" transform="translate(256.042727 286.366371) scale(0.12 -0.12)">
      <defs>
       <path id="DejaVuSans-36" d="M 2113 2584 
Q 1688 2584 1439 2293 
Q 1191 2003 1191 1497 
Q 1191 994 1439 701 
Q 1688 409 2113 409 
Q 2538 409 2786 701 
Q 3034 994 3034 1497 
Q 3034 2003 2786 2293 
Q 2538 2584 2113 2584 
z
M 3366 4563 
L 3366 3988 
Q 3128 4100 2886 4159 
Q 2644 4219 2406 4219 
Q 1781 4219 1451 3797 
Q 1122 3375 1075 2522 
Q 1259 2794 1537 2939 
Q 1816 3084 2150 3084 
Q 2853 3084 3261 2657 
Q 3669 2231 3669 1497 
Q 3669 778 3244 343 
Q 2819 -91 2113 -91 
Q 1303 -91 875 529 
Q 447 1150 447 2328 
Q 447 3434 972 4092 
Q 1497 4750 2381 4750 
Q 2619 4750 2861 4703 
Q 3103 4656 3366 4563 
z
" transform="scale(0.015625)"/>
      </defs>
      <use xlink:href="#DejaVuSans-49"/>
      <use xlink:href="#DejaVuSans-6c" x="29.492188"/>
      <use xlink:href="#DejaVuSans-36" x="57.275391"/>
      <use xlink:href="#DejaVuSans-73" x="120.898438"/>
      <use xlink:href="#DejaVuSans-74" x="172.998047"/>
     </g>
    </g>
    <g id="line2d_42">
     <path d="M 222.442727 299.780121 
L 234.442727 299.780121 
L 246.442727 299.780121 
" style="fill: none; stroke: #8c564b; stroke-linecap: square"/>
    </g>
    <g id="text_13">
     <!-- Cxcr5 -->
     <g style="fill: #8c564b" transform="translate(256.042727 303.980121) scale(0.12 -0.12)">
      <defs>
       <path id="DejaVuSans-35" d="M 691 4666 
L 3169 4666 
L 3169 4134 
L 1269 4134 
L 1269 2991 
Q 1406 3038 1543 3061 
Q 1681 3084 1819 3084 
Q 2600 3084 3056 2656 
Q 3513 2228 3513 1497 
Q 3513 744 3044 326 
Q 2575 -91 1722 -91 
Q 1428 -91 1123 -41 
Q 819 9 494 109 
L 494 744 
Q 775 591 1075 516 
Q 1375 441 1709 441 
Q 2250 441 2565 725 
Q 2881 1009 2881 1497 
Q 2881 1984 2565 2268 
Q 2250 2553 1709 2553 
Q 1456 2553 1204 2497 
Q 953 2441 691 2322 
L 691 4666 
z
" transform="scale(0.015625)"/>
      </defs>
      <use xlink:href="#DejaVuSans-43"/>
      <use xlink:href="#DejaVuSans-78" x="69.824219"/>
      <use xlink:href="#DejaVuSans-63" x="127.253906"/>
      <use xlink:href="#DejaVuSans-72" x="182.234375"/>
      <use xlink:href="#DejaVuSans-35" x="223.347656"/>
     </g>
    </g>
   </g>
  </g>
 </g>
 <defs>
  <clipPath id="p77e45c475d">
   <path d="M 251.508578 157.717983 
C 251.508578 146.734654 249.345102 135.858124 245.141964 125.710852 
C 240.938826 115.563579 234.777767 106.342902 227.011381 98.576516 
C 219.244995 90.81013 210.024318 84.649071 199.877045 80.445933 
C 189.729773 76.242795 178.853243 74.079319 167.869914 74.079319 
C 156.886585 74.079319 146.010056 76.242795 135.862783 80.445933 
C 125.71551 84.649071 116.494834 90.81013 108.728448 98.576516 
C 100.962061 106.342902 94.801002 115.563579 90.597864 125.710852 
C 86.394726 135.858124 84.23125 146.734654 84.23125 157.717983 
C 84.23125 168.701312 86.394726 179.577841 90.597864 189.725114 
C 94.801002 199.872386 100.962061 209.093063 108.728448 216.859449 
C 116.494834 224.625836 125.71551 230.786895 135.862783 234.990033 
C 146.010056 239.193171 156.886585 241.356647 167.869914 241.356647 
C 178.853243 241.356647 189.729773 239.193171 199.877045 234.990033 
C 210.024318 230.786895 219.244995 224.625836 227.011381 216.859449 
C 234.777767 209.093063 240.938826 199.872386 245.141964 189.725114 
C 249.345102 179.577841 251.508578 168.701312 251.508578 157.717983 
M 167.869914 157.717983 
C 167.869914 157.717983 167.869914 157.717983 167.869914 157.717983 
C 167.869914 157.717983 167.869914 157.717983 167.869914 157.717983 
C 167.869914 157.717983 167.869914 157.717983 167.869914 157.717983 
C 167.869914 157.717983 167.869914 157.717983 167.869914 157.717983 
C 167.869914 157.717983 167.869914 157.717983 167.869914 157.717983 
C 167.869914 157.717983 167.869914 157.717983 167.869914 157.717983 
C 167.869914 157.717983 167.869914 157.717983 167.869914 157.717983 
C 167.869914 157.717983 167.869914 157.717983 167.869914 157.717983 
C 167.869914 157.717983 167.869914 157.717983 167.869914 157.717983 
C 167.869914 157.717983 167.869914 157.717983 167.869914 157.717983 
C 167.869914 157.717983 167.869914 157.717983 167.869914 157.717983 
C 167.869914 157.717983 167.869914 157.717983 167.869914 157.717983 
C 167.869914 157.717983 167.869914 157.717983 167.869914 157.717983 
C 167.869914 157.717983 167.869914 157.717983 167.869914 157.717983 
C 167.869914 157.717983 167.869914 157.717983 167.869914 157.717983 
C 167.869914 157.717983 167.869914 157.717983 167.869914 157.717983 
z
"/>
  </clipPath>
 </defs>
</svg>
